<?xml version="1.0" encoding="UTF-8"?>
<svg xmlns="http://www.w3.org/2000/svg" xmlns:xlink="http://www.w3.org/1999/xlink" width="500pt" height="500pt" viewBox="0 0 500 500" version="1.1">
<g id="surface1">
<path style=" stroke:none;fill-rule:nonzero;fill:#98CCFD;fill-opacity:1;" d="M 357.570313 443.75 C 354.492188 443.75 351.367188 443.359375 348.242188 442.578125 C 336.375 439.648438 326.464844 430.078125 323 418.210938 C 320.996094 411.328125 320.898438 404.539063 322.753906 398.046875 C 326.804688 383.886719 325.195313 367.429688 318.210938 351.710938 L 290.96875 290.429688 L 310.5 281.738281 C 316.992188 296.582031 334.226563 335.839844 341.359375 351.074219 C 348.195313 365.625 362.257813 370.996094 370.605469 374.21875 C 372.804688 375.046875 374.65625 375.683594 375.929688 376.464844 C 386.914063 382.960938 393.75 394.875 393.75 407.617188 C 393.75 417.285156 389.992188 426.367188 383.15625 433.15625 C 376.320313 439.992188 367.234375 443.75 357.570313 443.75 Z "/>
<path style=" stroke:none;fill-rule:nonzero;fill:#4788C7;fill-opacity:1;" d="M 307.324219 289.992188 C 314.941406 307.46875 329.25 339.941406 335.695313 353.710938 C 343.601563 370.605469 359.132813 376.515625 368.40625 380.03125 C 369.96875 380.617188 372.117188 381.445313 372.753906 381.835938 C 381.882813 387.207031 387.5 397.070313 387.5 407.570313 C 387.5 424.070313 374.070313 437.5 357.570313 437.5 C 355.03125 437.5 352.390625 437.15625 349.757813 436.523438 C 339.992188 434.132813 331.835938 426.21875 329.003906 416.453125 C 327.296875 410.742188 327.246094 405.125 328.757813 399.757813 C 333.203125 384.179688 331.492188 366.257813 323.925781 349.171875 L 299.21875 293.601563 L 307.324219 289.992188 M 313.71875 273.484375 L 282.714844 287.257813 L 312.5 354.25 C 318.359375 367.480469 320.75 382.421875 316.75 396.289063 C 314.695313 403.515625 314.550781 411.570313 316.992188 419.96875 C 321.09375 433.886719 332.664063 445.164063 346.777344 448.679688 C 350.4375 449.5625 354.054688 450 357.570313 450 C 381.007813 450 400 431.007813 400 407.570313 C 400 392.039063 391.601563 378.417969 379.148438 371.046875 C 372.804688 367.335938 354.640625 364.550781 347.023438 348.390625 C 338.132813 329.445313 313.71875 273.484375 313.71875 273.484375 Z "/>
<path style=" stroke:none;fill-rule:nonzero;fill:#98CCFD;fill-opacity:1;" d="M 293.75 182.179688 L 308.398438 163.867188 C 318.796875 150.878906 323.535156 135.890625 321.679688 121.679688 C 320.996094 116.359375 321.632813 110.890625 323.535156 105.421875 C 327.492188 93.992188 337.011719 85.15625 348.339844 82.375 C 351.414063 81.640625 354.539063 81.25 357.570313 81.25 C 377.050781 81.25 393.261719 97.070313 393.75 116.503906 C 393.992188 126.515625 388.429688 137.15625 378.859375 144.921875 C 373.585938 149.21875 368.554688 151.804688 363.429688 152.929688 C 348.535156 156.203125 336.28125 163.328125 328.078125 173.585938 L 310.5 195.554688 Z "/>
<path style=" stroke:none;fill-rule:nonzero;fill:#4788C7;fill-opacity:1;" d="M 357.570313 87.5 C 373.679688 87.5 387.109375 100.585938 387.5 116.648438 C 387.695313 124.757813 383.007813 133.546875 374.902344 140.085938 C 370.410156 143.75 366.257813 145.945313 362.109375 146.828125 C 345.75 150.390625 332.324219 158.300781 323.195313 169.726563 L 309.523438 186.765625 L 302.539063 181.203125 L 313.28125 167.773438 C 324.757813 153.417969 329.929688 136.765625 327.929688 120.898438 C 327.34375 116.503906 327.882813 112.011719 329.445313 107.46875 C 332.664063 98.195313 340.671875 90.722656 349.851563 88.476563 C 352.390625 87.84375 355.03125 87.5 357.570313 87.5 M 357.570313 75 C 354.101563 75 350.488281 75.4375 346.828125 76.320313 C 333.300781 79.640625 322.167969 90.234375 317.625 103.367188 C 315.28125 110.058594 314.746094 116.503906 315.476563 122.507813 C 317.234375 135.9375 311.960938 149.367188 303.515625 159.960938 L 284.960938 183.15625 L 311.476563 204.34375 L 332.910156 177.492188 C 340.867188 167.578125 352.34375 161.765625 364.746094 159.03125 C 370.359375 157.859375 376.320313 155.03125 382.765625 149.804688 C 392.921875 141.554688 400.292969 129.445313 399.953125 116.359375 C 399.414063 93.40625 380.664063 75 357.570313 75 Z "/>
<path style=" stroke:none;fill-rule:nonzero;fill:#98CCFD;fill-opacity:1;" d="M 97.609375 238.132813 C 94.578125 237.453125 91.453125 237.109375 88.429688 237.109375 C 82.273438 237.109375 76.367188 238.574219 71.4375 241.359375 C 68.652344 242.921875 65.671875 243.703125 62.5 243.703125 C 52.148438 243.703125 43.75 235.304688 43.75 225 C 43.75 214.648438 52.148438 206.25 62.453125 206.25 C 67.96875 206.25 73.195313 208.691406 76.710938 212.890625 C 81.984375 219.140625 89.890625 223.585938 99.707031 225.78125 L 167.53125 240.917969 L 164.84375 253.125 Z "/>
<path style=" stroke:none;fill-rule:nonzero;fill:#4788C7;fill-opacity:1;" d="M 62.453125 212.5 C 66.113281 212.5 69.578125 214.109375 71.921875 216.945313 C 77.976563 224.171875 87.0625 229.34375 98.09375 231.835938 C 94.875 231.152344 91.648438 230.859375 88.429688 230.859375 C 81.203125 230.859375 74.265625 232.617188 68.359375 235.890625 C 66.554688 236.914063 64.550781 237.453125 62.453125 237.453125 C 55.617188 237.453125 50 231.882813 50 224.953125 C 50 218.066406 55.617188 212.5 62.453125 212.5 M 62.453125 200 C 48.679688 200 37.5 211.179688 37.5 224.953125 C 37.5 238.769531 48.679688 249.953125 62.453125 249.953125 C 66.84375 249.953125 70.945313 248.78125 74.460938 246.828125 C 78.757813 244.433594 83.546875 243.359375 88.429688 243.359375 C 91.0625 243.359375 93.652344 243.652344 96.242188 244.238281 L 169.578125 260.59375 L 175 236.179688 L 101.074219 219.679688 C 93.652344 218.066406 86.375 214.746094 81.542969 208.9375 C 76.953125 203.46875 70.117188 200 62.453125 200 Z "/>
<path style=" stroke:none;fill-rule:nonzero;fill:#98CCFD;fill-opacity:1;" d="M 150.4375 431.25 C 139.84375 431.25 131.25 422.65625 131.25 412.0625 C 131.25 403.5625 136.914063 395.996094 145.070313 393.601563 C 153.222656 391.257813 159.421875 385.59375 162.5 381.152344 C 170.65625 369.238281 191.015625 340.332031 199.316406 328.613281 L 209.914063 336.035156 C 202.101563 347.023438 183.742188 372.949219 174.21875 387.011719 C 170.164063 392.921875 169.628906 402.832031 169.628906 411.71875 C 169.628906 422.65625 161.035156 431.25 150.4375 431.25 Z "/>
<path style=" stroke:none;fill-rule:nonzero;fill:#4788C7;fill-opacity:1;" d="M 200.828125 337.304688 L 201.171875 337.546875 C 192.234375 350.148438 177.296875 371.289063 169.042969 383.496094 C 164.0625 390.820313 163.378906 401.855469 163.378906 412.0625 C 163.378906 419.1875 157.570313 425 150.4375 425 C 143.3125 425 137.5 419.1875 137.5 412.0625 C 137.5 406.347656 141.308594 401.21875 146.828125 399.609375 C 155.078125 397.21875 162.890625 391.601563 167.625 384.667969 C 174.707031 374.367188 191.257813 350.878906 200.828125 337.304688 M 197.804688 319.921875 C 197.804688 319.921875 167.726563 362.5 157.324219 377.636719 C 154.6875 381.492188 149.5625 385.789063 143.359375 387.597656 C 132.714844 390.671875 125 400.488281 125 412.0625 C 125 426.125 136.375 437.5 150.4375 437.5 C 164.5 437.5 175.878906 426.125 175.878906 412.0625 C 175.878906 407.664063 175.78125 395.800781 179.394531 390.476563 C 191.699219 372.363281 218.652344 334.523438 218.652344 334.523438 Z "/>
<path style=" stroke:none;fill-rule:nonzero;fill:#B6DCFE;fill-opacity:1;" d="M 134.570313 162.890625 C 125.046875 150.683594 112.648438 142.773438 99.609375 140.625 C 96.140625 140.039063 92.773438 138.964844 89.355469 137.257813 C 78.5625 131.882813 70.800781 121.632813 69.1875 110.449219 C 67.578125 99.757813 70.554688 89.355469 77.539063 81.296875 C 84.421875 73.339844 94.382813 68.75 104.929688 68.75 C 107.765625 68.75 110.695313 69.09375 113.574219 69.726563 C 125.34375 72.460938 135.449219 81.835938 139.257813 93.601563 C 140.96875 99.023438 141.503906 104.394531 140.722656 109.667969 C 138.71875 124.023438 143.3125 139.210938 153.664063 152.539063 L 219.824219 237.597656 L 202.882813 250.734375 Z "/>
<path style=" stroke:none;fill-rule:nonzero;fill:#4788C7;fill-opacity:1;" d="M 104.929688 75 C 107.324219 75 109.71875 75.292969 112.15625 75.828125 C 121.828125 78.078125 130.125 85.789063 133.300781 95.554688 C 134.71875 100 135.15625 104.492188 134.523438 108.789063 C 132.273438 124.851563 137.304688 141.75 148.730469 156.398438 L 211.035156 236.523438 L 203.953125 241.992188 L 139.5 159.082031 C 129.003906 145.605469 115.1875 136.867188 100.585938 134.472656 C 97.753906 134.03125 94.96875 133.105469 92.140625 131.6875 C 83.105469 127.195313 76.710938 118.75 75.34375 109.570313 C 74.023438 100.632813 76.464844 92.089844 82.226563 85.398438 C 87.9375 78.808594 96.191406 75 104.929688 75 M 104.929688 62.5 C 79.34375 62.5 59.082031 85.109375 62.988281 111.375 C 64.992188 124.953125 74.265625 136.765625 86.570313 142.871094 C 90.671875 144.921875 94.679688 146.191406 98.585938 146.828125 C 111.085938 148.875 121.828125 156.738281 129.589844 166.75 L 201.804688 259.523438 L 228.5625 238.71875 L 158.59375 148.730469 C 150.148438 137.890625 145.019531 124.171875 146.921875 110.59375 C 147.753906 104.640625 147.3125 98.289063 145.164063 91.699219 C 140.722656 77.929688 129.054688 66.894531 114.941406 63.671875 C 111.523438 62.890625 108.203125 62.5 104.929688 62.5 Z "/>
<path style=" stroke:none;fill-rule:nonzero;fill:#B6DCFE;fill-opacity:1;" d="M 68.898438 368.75 C 61.28125 368.75 54.148438 365.332031 49.316406 359.375 C 44.433594 353.367188 42.675781 345.75 44.382813 337.9375 C 46.289063 329.054688 53.367188 321.582031 62.0625 319.335938 C 64.355469 318.75 66.648438 318.457031 68.945313 318.457031 C 73.632813 318.457031 78.222656 319.726563 82.226563 322.265625 C 88.71875 326.367188 96.046875 328.515625 103.367188 328.515625 C 107.179688 328.515625 110.9375 327.929688 114.550781 326.757813 L 172.65625 307.859375 L 176.074219 318.359375 L 116.894531 337.597656 C 106.445313 340.96875 97.070313 348.09375 88.914063 358.789063 C 84.132813 365.136719 76.804688 368.75 68.898438 368.75 Z "/>
<path style=" stroke:none;fill-rule:nonzero;fill:#4788C7;fill-opacity:1;" d="M 68.898438 324.65625 C 72.460938 324.65625 75.878906 325.683594 78.859375 327.539063 C 86.375 332.273438 94.875 334.765625 103.320313 334.765625 C 104.882813 334.765625 106.398438 334.667969 107.859375 334.523438 C 99.070313 338.820313 91.015625 345.703125 83.9375 355.03125 C 80.371094 359.765625 74.851563 362.5 68.898438 362.5 C 63.183594 362.5 57.8125 359.960938 54.199219 355.46875 C 50.539063 350.929688 49.21875 345.164063 50.4375 339.257813 C 51.90625 332.617188 57.179688 327.050781 63.625 325.390625 C 65.382813 324.902344 67.1875 324.65625 68.898438 324.65625 M 176.710938 300 L 112.648438 320.800781 C 109.570313 321.777344 106.445313 322.265625 103.320313 322.265625 C 97.117188 322.265625 90.96875 320.359375 85.546875 316.945313 C 80.710938 313.914063 75 312.15625 68.898438 312.15625 C 66.164063 312.15625 63.328125 312.546875 60.5 313.28125 C 49.460938 316.164063 40.625 325.488281 38.234375 336.621094 C 33.886719 357.03125 49.265625 375 68.898438 375 C 79.101563 375 88.183594 370.117188 93.898438 362.597656 C 100.390625 354.003906 108.59375 346.875 118.796875 343.554688 L 183.9375 322.363281 Z "/>
<path style=" stroke:none;fill-rule:nonzero;fill:#B6DCFE;fill-opacity:1;" d="M 317.625 229.734375 C 322.21875 228.5625 329.101563 226.804688 336.960938 224.804688 C 354.394531 220.359375 376.367188 214.796875 387.742188 211.71875 C 395.460938 209.667969 401.414063 207.078125 408.496094 192.726563 C 412.011719 185.546875 418.359375 181.25 425.488281 181.25 C 435.546875 181.25 443.75 189.40625 443.75 199.511719 C 443.75 209.570313 435.546875 217.773438 425.488281 217.773438 C 424.21875 217.773438 423 217.625 421.777344 217.429688 C 412.84375 215.578125 406.007813 214.796875 399.5625 214.796875 C 394.042969 214.796875 388.964844 215.382813 384.132813 216.601563 L 318.601563 233.546875 Z "/>
<path style=" stroke:none;fill-rule:nonzero;fill:#4788C7;fill-opacity:1;" d="M 425.488281 187.5 C 432.128906 187.5 437.5 192.871094 437.5 199.511719 C 437.5 206.152344 432.128906 211.523438 425.488281 211.523438 C 424.65625 211.523438 423.828125 211.425781 423.046875 211.28125 C 416.359375 209.914063 410.695313 209.082031 405.46875 208.742188 C 408.445313 205.566406 411.230469 201.320313 414.109375 195.460938 C 415.039063 193.601563 418.554688 187.5 425.488281 187.5 M 425.488281 175 C 415.332031 175 407.128906 181.398438 402.882813 189.992188 C 396.726563 202.492188 392.382813 204.003906 386.132813 205.664063 C 365.429688 211.230469 309.421875 225.292969 310.058594 225.292969 L 314.160156 241.164063 L 385.695313 222.703125 C 390.28125 221.53125 394.921875 221.046875 399.609375 221.046875 C 406.542969 221.046875 413.574219 222.117188 420.554688 223.535156 C 422.167969 223.875 423.78125 224.023438 425.488281 224.023438 C 439.015625 224.023438 450 213.085938 450 199.511719 C 450 185.984375 439.015625 175 425.488281 175 Z "/>
<path style=" stroke:none;fill-rule:nonzero;fill:#DFF0FE;fill-opacity:1;" d="M 243.75 481.25 C 240.28125 481.25 236.765625 480.8125 233.300781 479.835938 C 221.046875 476.5625 211.035156 466.601563 207.714844 454.394531 C 203.171875 437.648438 209.523438 421.09375 223.875 412.15625 C 237.695313 403.5625 245.605469 390.332031 245.605469 375.828125 L 245.605469 373.632813 C 245.605469 368.117188 243.554688 363.71875 242.140625 360.839844 C 241.75 360.007813 241.359375 359.277344 241.210938 358.640625 C 241.257813 357.03125 245.75 353.757813 252.492188 353.757813 C 259.277344 353.757813 263.71875 357.03125 263.71875 359.179688 C 263.671875 359.375 262.988281 360.984375 262.546875 362.109375 C 261.132813 365.578125 259.375 369.921875 259.375 374.367188 L 259.375 383.054688 C 259.375 396.582031 264.109375 409.765625 272.65625 420.117188 C 278.273438 426.855469 281.25 435.007813 281.25 443.75 C 281.25 453.808594 277.34375 463.183594 270.265625 470.265625 C 263.183594 477.34375 253.757813 481.25 243.75 481.25 Z "/>
<path style=" stroke:none;fill-rule:nonzero;fill:#4788C7;fill-opacity:1;" d="M 252.492188 360.007813 C 254.101563 360.007813 255.421875 360.253906 256.398438 360.59375 C 254.929688 364.257813 253.125 369.09375 253.125 374.367188 L 253.125 383.007813 C 253.125 398.046875 258.351563 412.648438 267.871094 424.070313 C 272.558594 429.6875 275 436.523438 275 443.75 C 275 460.984375 260.984375 475 243.75 475 C 240.820313 475 237.84375 474.609375 234.914063 473.828125 C 224.804688 471.09375 216.503906 462.84375 213.71875 452.78125 C 209.914063 438.769531 215.1875 424.902344 227.195313 417.429688 C 242.382813 408.007813 251.609375 392.773438 251.855469 376.609375 L 251.855469 373.632813 C 251.855469 368.210938 250.292969 363.71875 248.875 360.5 C 249.851563 360.203125 251.074219 360.007813 252.492188 360.007813 M 252.492188 347.507813 C 242.820313 347.507813 235.007813 352.734375 235.007813 359.179688 C 235.007813 362.0625 239.355469 366.84375 239.355469 373.632813 C 239.355469 374.65625 239.355469 375.390625 239.355469 375.828125 L 239.355469 376.609375 C 239.355469 376.609375 239.355469 376.414063 239.355469 375.828125 C 239.355469 388.867188 231.640625 399.953125 220.605469 406.835938 C 205.078125 416.453125 196.09375 435.449219 201.660156 456.054688 C 205.566406 470.410156 217.335938 482.03125 231.6875 485.890625 C 235.789063 487.011719 239.84375 487.5 243.75 487.5 C 267.921875 487.5 287.5 467.921875 287.5 443.75 C 287.5 433.203125 283.742188 423.632813 277.492188 416.113281 C 269.773438 406.835938 265.625 395.117188 265.625 383.054688 C 265.625 383.054688 265.625 380.90625 265.625 374.367188 C 265.625 368.796875 270.019531 362.0625 270.019531 359.179688 C 270.019531 352.734375 262.15625 347.507813 252.492188 347.507813 Z "/>
<path style=" stroke:none;fill-rule:nonzero;fill:#DFF0FE;fill-opacity:1;" d="M 429.929688 343.75 C 418.898438 343.75 409.179688 336.328125 406.296875 325.683594 C 404.539063 319.140625 399.757813 313.71875 393.554688 311.230469 C 393.507813 311.230469 367.429688 300.929688 358.789063 297.414063 C 355.566406 296.09375 352.148438 295.945313 349.460938 295.945313 C 349.460938 295.945313 345.65625 295.996094 345.554688 295.996094 C 345.164063 295.996094 344.875 295.945313 344.578125 295.898438 C 344.042969 295.65625 342.675781 291.554688 345.070313 286.085938 C 347.117188 281.492188 350.390625 279.296875 352 279.25 C 352.050781 279.34375 352.246094 279.589844 352.441406 279.882813 C 353.953125 281.882813 356.445313 285.203125 361.035156 286.914063 C 369.921875 290.28125 396.289063 300.976563 396.289063 300.976563 C 398.828125 301.953125 401.414063 302.492188 404.101563 302.492188 C 408.496094 302.492188 412.84375 301.125 416.699219 298.585938 C 420.65625 296.046875 425.242188 294.679688 429.929688 294.679688 C 431.789063 294.679688 433.691406 294.875 435.59375 295.3125 C 444.628906 297.3125 452.195313 305.078125 453.953125 314.160156 C 455.46875 321.679688 453.664063 329.003906 448.925781 334.765625 C 444.1875 340.476563 437.257813 343.75 429.929688 343.75 Z "/>
<path style=" stroke:none;fill-rule:nonzero;fill:#4788C7;fill-opacity:1;" d="M 351.125 287.890625 C 351.804688 288.523438 352.585938 289.210938 353.46875 289.84375 C 352.390625 289.746094 351.367188 289.695313 350.390625 289.695313 C 350.488281 289.355469 350.632813 288.964844 350.78125 288.574219 C 350.878906 288.328125 351.023438 288.085938 351.125 287.890625 M 429.929688 300.878906 C 431.347656 300.878906 432.765625 301.074219 434.226563 301.367188 C 440.917969 302.882813 446.484375 308.59375 447.804688 315.332031 C 448.925781 320.996094 447.609375 326.464844 444.042969 330.8125 C 440.578125 335.058594 435.398438 337.5 429.929688 337.5 C 421.726563 337.5 414.5 331.984375 412.351563 324.023438 C 410.644531 317.773438 406.789063 312.304688 401.609375 308.59375 C 402.441406 308.640625 403.273438 308.691406 404.101563 308.691406 C 409.71875 308.691406 415.234375 307.03125 420.117188 303.808594 C 423.046875 301.90625 426.414063 300.878906 429.929688 300.878906 M 352.050781 273 C 347.363281 273 342.140625 277.148438 339.355469 283.59375 C 335.9375 291.40625 337.402344 299.5625 342.578125 301.804688 C 343.359375 302.148438 344.484375 302.195313 345.898438 302.195313 C 346.972656 302.195313 348.195313 302.148438 349.460938 302.148438 C 351.804688 302.148438 354.296875 302.296875 356.398438 303.171875 C 365.039063 306.738281 391.210938 317.039063 391.210938 317.039063 C 395.703125 318.847656 399.023438 322.65625 400.242188 327.296875 C 403.808594 340.382813 415.722656 350 429.929688 350 C 448.976563 350 464.015625 332.664063 460.109375 312.890625 C 457.8125 301.367188 448.4375 291.75 436.960938 289.210938 C 434.570313 288.671875 432.226563 288.378906 429.929688 288.378906 C 423.78125 288.378906 418.066406 290.234375 413.28125 293.359375 C 410.5 295.164063 407.324219 296.191406 404.101563 296.191406 C 402.246094 296.191406 400.4375 295.898438 398.679688 295.164063 C 398.679688 295.164063 372.167969 284.421875 363.234375 281.054688 C 358.445313 279.25 357.179688 274.5625 354.929688 273.585938 C 354.003906 273.195313 353.027344 273 352.050781 273 Z "/>
<path style=" stroke:none;fill-rule:nonzero;fill:#DFF0FE;fill-opacity:1;" d="M 243.75 163.769531 C 230.8125 163.769531 218.652344 156.738281 218.652344 152.492188 C 218.652344 149.902344 220.605469 147.167969 224.121094 145.070313 C 231.738281 140.382813 236.132813 133.105469 236.132813 125.046875 L 236.132813 121.632813 C 236.132813 108.691406 234.472656 95.507813 222.3125 87.011719 C 208.742188 77.492188 203.171875 60.890625 208.007813 44.578125 C 211.425781 32.960938 221.335938 23.390625 233.15625 20.164063 C 236.671875 19.238281 240.234375 18.75 243.75 18.75 C 264.40625 18.75 281.25 35.59375 281.25 56.25 C 281.25 68.457031 275.292969 79.929688 265.28125 86.960938 C 254.835938 94.289063 249.5625 105.8125 249.5625 121.09375 L 249.5625 125.046875 C 249.5625 133.054688 253.953125 140.382813 261.570313 145.019531 C 265.039063 147.167969 267.039063 149.851563 267.039063 152.492188 C 267.039063 156.933594 256.59375 163.769531 243.75 163.769531 Z "/>
<path style=" stroke:none;fill-rule:nonzero;fill:#4788C7;fill-opacity:1;" d="M 243.75 25 C 260.984375 25 275 39.015625 275 56.25 C 275 66.40625 270.019531 75.976563 261.671875 81.835938 C 249.460938 90.429688 243.261719 103.613281 243.261719 121.09375 L 243.261719 125.046875 C 243.261719 135.15625 248.875 144.578125 258.300781 150.34375 C 259.421875 151.074219 260.109375 151.710938 260.449219 152.101563 C 258.445313 154.101563 251.90625 157.519531 243.75 157.519531 C 235.695313 157.519531 228.171875 154.25 225.4375 151.90625 C 225.828125 151.464844 226.464844 150.929688 227.390625 150.34375 C 236.765625 144.578125 242.382813 135.15625 242.382813 125.046875 L 242.382813 121.632813 C 242.382813 112.453125 242.382813 93.457031 225.878906 81.882813 C 214.550781 73.976563 209.914063 60.058594 213.964844 46.4375 C 216.84375 36.816406 225 28.859375 234.765625 26.21875 C 237.792969 25.390625 240.773438 25 243.75 25 M 243.75 12.5 C 239.746094 12.5 235.644531 13.039063 231.492188 14.160156 C 217.578125 17.921875 206.101563 29.003906 202 42.820313 C 195.996094 62.9375 204.054688 81.882813 218.703125 92.089844 C 228.515625 98.976563 229.882813 109.617188 229.882813 121.632813 L 229.882813 125.046875 C 229.882813 131.25 226.125 136.476563 220.800781 139.695313 C 215.625 142.871094 212.402344 147.414063 212.402344 152.492188 C 212.402344 162.15625 229.25 170.019531 243.75 170.019531 C 258.25 170.019531 273.242188 162.15625 273.242188 152.492188 C 273.242188 147.414063 270.019531 142.871094 264.84375 139.695313 C 259.523438 136.476563 255.761719 131.25 255.761719 125.046875 L 255.761719 121.09375 C 255.761719 109.226563 259.132813 98.875 268.847656 92.089844 C 280.125 84.179688 287.5 71.046875 287.5 56.25 C 287.5 32.078125 267.921875 12.5 243.75 12.5 Z "/>
<path style=" stroke:none;fill-rule:nonzero;fill:#DFF0FE;fill-opacity:1;" d="M 243.75 381.25 C 174.804688 381.25 118.75 325.195313 118.75 256.25 C 118.75 187.304688 174.804688 131.25 243.75 131.25 C 312.695313 131.25 368.75 187.304688 368.75 256.25 C 368.75 325.195313 312.695313 381.25 243.75 381.25 Z "/>
<path style=" stroke:none;fill-rule:nonzero;fill:#4788C7;fill-opacity:1;" d="M 243.75 137.5 C 309.226563 137.5 362.5 190.773438 362.5 256.25 C 362.5 321.726563 309.226563 375 243.75 375 C 178.273438 375 125 321.726563 125 256.25 C 125 190.773438 178.273438 137.5 243.75 137.5 M 243.75 125 C 171.242188 125 112.5 183.742188 112.5 256.25 C 112.5 328.757813 171.242188 387.5 243.75 387.5 C 316.257813 387.5 375 328.757813 375 256.25 C 375 183.742188 316.257813 125 243.75 125 Z "/>
<path style=" stroke:none;fill-rule:nonzero;fill:#98CCFD;fill-opacity:1;" d="M 250 218.75 C 250 235.984375 235.984375 250 218.75 250 C 201.515625 250 187.5 235.984375 187.5 218.75 C 187.5 201.515625 201.515625 187.5 218.75 187.5 C 235.984375 187.5 250 201.515625 250 218.75 Z "/>
<path style=" stroke:none;fill-rule:nonzero;fill:#98CCFD;fill-opacity:1;" d="M 206.25 325 C 195.019531 325 187.5 317.480469 187.5 306.25 C 187.5 295.019531 194.96875 287.5 206.25 287.5 C 217.480469 287.5 225 295.019531 225 306.25 C 225 317.480469 217.480469 325 206.25 325 Z "/>
<path style=" stroke:none;fill-rule:nonzero;fill:#98CCFD;fill-opacity:1;" d="M 287.5 325 C 274.171875 325 262.5 313.328125 262.5 300 C 262.5 286.671875 274.171875 275 287.5 275 C 300.828125 275 312.5 286.671875 312.5 300 C 312.5 313.328125 300.828125 325 287.5 325 Z "/>
</g>
</svg>
